<?xml version="1.0" encoding="iso-8859-1"?>
<!-- Generator: Adobe Illustrator 19.0.0, SVG Export Plug-In . SVG Version: 6.00 Build 0)  -->
<svg version="1.1" id="Capa_1" xmlns="http://www.w3.org/2000/svg" xmlns:xlink="http://www.w3.org/1999/xlink" x="0px" y="0px"
	 viewBox="0 0 464.275 464.275" style="enable-background:new 0 0 464.275 464.275;" xml:space="preserve">
<path style="fill:#ED6262;" d="M212.547,460.851c3.162-24.305,4.864-52.887-13.417-69.225c-25.495-22.799-70.415-4.352-97.31-25.464
	c-19.742-15.48-20.42-44.333-27.332-68.442c-7.65-26.684-25.103-50.447-48.279-65.732c-6.099-4.021-13.417-8.885-13.282-16.203
	c0.151-8.237,10.797-12.951,18.552-10.18c7.755,2.771,12.77,10.225,16.625,17.498c3.855,7.288,7.349,15.164,13.824,20.254
	c-0.045-17.001-0.075-34.003-0.12-51.004c-0.015-4.608,0.437-10.059,4.397-12.424c5.542-3.298,13.478,0.542,15.089,16.369
	c2.199,21.609,4.397,43.234,6.596,64.843c11.384-10.089,16.535-26.699,12.86-41.457c-1.596-6.4-4.292-14.321,0.648-18.688
	c5.421-4.804,15.887-1.717,18.281,13.327c5.677,35.689-27.648,71.258-15.872,105.442c6.641,19.29,26.729,37.722,75.821,39.304
	c-11.264-19.26-22.92-40.177-20.856-62.389c1.566-16.776,10.812-31.759,15.45-47.962c10.933-38.174-7.394-82.703-42.029-102.129
	c-11.927-6.686-25.329-10.601-36.774-18.101c-11.415-7.499-21.052-20.239-19.17-33.792c15.556-6.505,32.512,4.909,44.695,16.55
	c12.183,11.64,25.992,25.224,42.782,23.733c4.984-11.068-3.087-23.898-12.981-30.931c-9.894-7.032-21.926-11.083-30.539-19.622
	c-8.629-8.538-12.002-24.591-2.424-32.045c9.788-7.635,24.094-0.467,33.129,8.026c26.504,24.922,40.599,60.988,44.529,97.144
	c3.915,36.171-1.521,72.719-9.276,108.273c-3.735,17.137,4.006,27.603,17.679,17.047c42.21-32.602,28.009-72.056,32.331-87.13
	c1.656-5.768,6.942-11.098,12.89-10.315c9.939,1.31,10.662,15.36,8.629,25.178c-5.436,26.202-11.505,53.7-29.229,73.743
	c-7.891,8.93-17.784,15.962-25.374,25.148c-7.605,9.186-12.815,21.73-8.96,32.994c5.707,16.715,29.365,21.384,44.574,12.424
	c32.693-19.26,43.144-116.058,41.879-144.113c-1.31-29.32-11.249-59.437-32.964-79.179c-10.722-9.758-23.853-16.61-34.485-26.458
	s-18.854-24.41-15.36-38.49c13.222-8.824,30.901,2.756,39.71,15.992c8.794,13.237,15.27,29.711,29.711,36.337
	c-10.888-20.962-21.775-41.924-32.648-62.886c-6.024-11.61-11.038-26.985,1.31-33.069c6.084-2.997,13.764,0,18.221,5.105
	c4.457,5.12,6.46,11.866,8.328,18.387c8.599,29.907,17.197,59.799,25.796,89.705c27.302-52.932,4.427-94.027,3.539-111.24
	c-0.437-8.493,2.394-17.815,9.562-22.392C311.8-4.09,326.784,2.958,332.4,14.086c13.538,26.79-12.574,75.234-25.404,117.594
	c-8.252,27.256-12.122,57.374-1.31,83.712c5.466-15.375,10.933-30.75,16.399-46.11c1.792-5.03,4.412-10.797,9.653-11.791
	c5.286-1.009,10.195,3.991,11.159,9.291c1.536,8.478-71.529,205.673-74.451,213.76c30.193-27.497,60.386-55.01,90.579-82.507
	c8.252-7.514,16.896-15.646,19.787-26.428c6.581-24.546-18.778-45.583-24.862-70.249c-4.593-18.628,6.596-29.109,16.55-26.835
	c6.219,1.416,10.059,7.529,12.845,13.252c7.8,16.053,12.71,33.506,14.381,51.275c6.581-13.192,13.176-26.398,19.757-39.59
	c4.141-8.297,10.24-17.845,19.516-17.559c7.951,0.241,13.824,8.433,14.321,16.384c1.37,22.317-46.065,89.525-63.985,111.556
	c8.84-5.978,18.402-12.183,29.064-12.077c10.662,0.09,21.82,9.728,19.2,20.073c-3.192,12.604-20.344,13.432-33.34,13.779
	c-33.355,0.888-65.928,17.709-85.986,44.378c-14.773,19.667-22.769,43.836-38.114,63.051c-15.345,19.215-43.113,32.768-64.497,20.6"
	/>
<g>
</g>
<g>
</g>
<g>
</g>
<g>
</g>
<g>
</g>
<g>
</g>
<g>
</g>
<g>
</g>
<g>
</g>
<g>
</g>
<g>
</g>
<g>
</g>
<g>
</g>
<g>
</g>
<g>
</g>
</svg>
